<svg width="47" height="26" viewBox="0 0 47 26" fill="none" xmlns="http://www.w3.org/2000/svg">
<g clip-path="url(#clip0_1966_7375)">
<path d="M34.1284 15.5355L46.5475 9.98048L40.9835 22.3182L40.1001 16.6333L34.1284 15.5355Z" fill="#01E6FF"/>
<path fill-rule="evenodd" clip-rule="evenodd" d="M46.9071 9.62215L40.8982 22.9464L39.9412 16.787L33.5256 15.6077L46.9071 9.62215ZM34.7311 15.4631L40.259 16.4793L41.0687 21.6899L46.1878 10.3386L34.7311 15.4631Z" fill="#02E6FF"/>
<path d="M19.246 24.6982C15.3566 5.97388 38.1815 -2.93325 48.8879 7.64602C48.8879 7.64602 38.2865 -2.43224 30.8793 1.43333C26.8628 3.52941 18.7183 1.30832 18.7183 1.30832C18.7183 1.30832 21.3689 3.55296 21.0411 5.32926C20.817 6.5435 18.7219 8.76304 16.8042 6.32641C14.3453 3.20214 8.29615 4.05675 8.29615 4.05675C13.0076 6.36886 12.7433 8.29831 8.36089 6.76708C10.3784 10.707 12.005 10.5474 12.7747 10.9894C13.7284 11.5371 13.3347 13.0387 12.3123 13.5215C11.2424 14.0268 8.10921 12.2179 8.48011 10.8801C8.77139 9.79699 4.56668 8.46384 0.73502 9.16375C5.17233 9.76063 9.49019 16.0988 3.97386 14.9698C1.84069 14.4648 -7.94071e-06 16.9945 -7.94071e-06 16.9945C-7.94071e-06 16.9945 12.2185 17.5991 7.75136 20.9034C7.75136 20.9034 11.9385 22.8902 13.8415 21.6183C16.2736 19.9928 19.246 24.6982 19.246 24.6982Z" fill="url(#paint0_linear_1966_7375)"/>
<path d="M33.1021 23.3751C34.9013 25.1678 37.8183 25.1678 39.6175 23.3751C41.4167 21.5824 41.4167 18.6758 39.6175 16.8831C37.8183 15.0904 34.9013 15.0904 33.1021 16.8831C31.3029 18.6758 31.3029 21.5824 33.1021 23.3751Z" fill="white" fill-opacity="0.0211268"/>
<path fill-rule="evenodd" clip-rule="evenodd" d="M39.1177 17.381C37.5946 15.8633 35.125 15.8633 33.6018 17.381C32.0786 18.8987 32.0786 21.3593 33.6018 22.877C35.125 24.3947 37.5946 24.3947 39.1177 22.877C40.6409 21.3593 40.6409 18.8987 39.1177 17.381ZM32.6023 16.385C34.6775 14.3173 38.0421 14.3173 40.1173 16.385C42.1924 18.4528 42.1924 21.8052 40.1173 23.873C38.0421 25.9407 34.6775 25.9407 32.6023 23.873C30.5271 21.8052 30.5271 18.4528 32.6023 16.385Z" fill="#02E6FF"/>
</g>
<defs>
<linearGradient id="paint0_linear_1966_7375" x1="17.407" y1="-11.0253" x2="42.5195" y2="14.1778" gradientUnits="userSpaceOnUse">
<stop stop-color="#FE00F0"/>
<stop offset="1" stop-color="#02E7FF"/>
</linearGradient>
<clipPath id="clip0_1966_7375">
<rect width="47" height="25" fill="white" transform="translate(0 0.5)"/>
</clipPath>
</defs>
</svg>
